<svg xmlns="http://www.w3.org/2000/svg" width="9.075" height="9.512" viewBox="0 0 9.075 9.512">
  <g id="Group_8103" data-name="Group 8103" transform="translate(-343.75 -280.575)">
    <g id="Group_8091" data-name="Group 8091" transform="translate(352.575 280.834) rotate(90)">
      <path id="Path_62" data-name="Path 62" d="M8.273,8.575a.727.727,0,0,1-.643-.386L4.49,2.281,1.934,7.12H4.691a.727.727,0,1,1,0,1.455H.727A.727.727,0,0,1,.084,7.508L3.845.388A.728.728,0,0,1,4.487,0h0A.728.728,0,0,1,5.13.386l3.784,7.12a.727.727,0,0,1-.641,1.069Z" fill="#010103" stroke="#fff" stroke-width="0.5"/>
    </g>
  </g>
</svg>
