<svg xmlns="http://www.w3.org/2000/svg" width="77.351" height="59.42" viewBox="0 0 77.351 59.42">
  <g id="Group_9158" data-name="Group 9158" transform="translate(0)">
    <g id="Group_8163" data-name="Group 8163" transform="translate(0 4.258)">
      <path id="Path_2093" data-name="Path 2093" d="M102.188,124.285a12.467,12.467,0,0,1-8.588-3.508,12.259,12.259,0,0,1-3.04-13.672c.018-.042.036-.083.055-.124l14.213-30.848a11.487,11.487,0,0,1,8.54-6.812,12.412,12.412,0,0,1,11.257,3.773l18.195,19.231a3.812,3.812,0,1,1-5.538,5.24L119.086,78.334a4.821,4.821,0,0,0-4.346-1.513,3.806,3.806,0,0,0-2.907,2.322c-.018.042-.036.083-.055.125L97.572,110.1a4.671,4.671,0,0,0,1.283,5.153,4.583,4.583,0,0,0,5.167.989l9.219-4.408a3.812,3.812,0,0,1,3.289,6.878l-9.219,4.408A11.841,11.841,0,0,1,102.188,124.285Z" transform="translate(-89.63 -69.123)" fill="#fff"/>
    </g>
    <g id="Group_8164" data-name="Group 8164" transform="translate(23.118)">
      <path id="Path_2094" data-name="Path 2094" d="M154.329,120.125a12.5,12.5,0,0,1-9.076-3.971L127.058,96.923a3.812,3.812,0,1,1,5.538-5.24l18.195,19.231a4.817,4.817,0,0,0,4.347,1.513,3.807,3.807,0,0,0,2.907-2.322l14.249-33.469a4.659,4.659,0,0,0-1.27-5.184,4.584,4.584,0,0,0-5.167-.989l-9.219,4.408a3.812,3.812,0,1,1-3.289-6.878l9.218-4.408A12.518,12.518,0,0,1,179.319,79.6L165.07,113.07a11.473,11.473,0,0,1-8.56,6.857A12.125,12.125,0,0,1,154.329,120.125Z" transform="translate(-126.016 -62.422)" fill="#fff"/>
    </g>
  </g>
</svg>
