<svg id="Component_13_1" data-name="Component 13 – 1" xmlns="http://www.w3.org/2000/svg" width="578.384" height="578.601" viewBox="0 0 578.384 578.601">
  <path id="Path_76" data-name="Path 76" d="M183.5,0,352.727,326.334H17.766Z" transform="translate(105.493 154.803)" fill="#09011c"/>
  <path id="Path_2079" data-name="Path 2079" d="M531.929,0c-16.786,0-32.968,9.528-41.286,26.011L288.752,424.651,124.367,98.148h397.24c25.86,0,46.73-21.928,46.73-49s-20.87-49-46.73-49H46.787C30.454.151,15.179,9.225,6.711,23.894A51.409,51.409,0,0,0,5.35,72.136l241.814,480.3c8.016,16.03,23.895,26.163,41.286,26.163h0c17.241,0,33.12-9.981,41.286-26.011l243.175-480.3c12.1-23.894,3.478-53.686-19.357-66.39A44.435,44.435,0,0,0,531.626.151Z" transform="translate(578.384 578.601) rotate(-180)" fill="#ffffff13" style="mix-blend-mode: luminosity;isolation: isolate"/>
</svg>
