<svg xmlns="http://www.w3.org/2000/svg" width="1455.143" height="1117.779" viewBox="0 0 1455.143 1117.779">
  <g id="Group_8167" data-name="Group 8167" transform="translate(0.438 0.393)" opacity="0.202">
    <g id="Group_8163" data-name="Group 8163" transform="translate(0 80.049)">
      <path id="Path_2093" data-name="Path 2093" d="M325.73,1106.21c-58.137,0-115.963-22.66-161.462-65.949C92.717,972.21,70.284,871.31,107.111,783.215c.334-.788.669-1.565,1.027-2.341L375.362,200.9A215.967,215.967,0,0,1,535.929,72.839c77.142-14.1,156.253,12.411,211.631,70.942l342.073,361.554a71.671,71.671,0,0,1-104.126,98.512L643.434,242.292c-21.919-23.161-52.451-33.757-81.717-28.453-14.728,2.7-41.4,11.946-54.649,43.647-.335.788-.669,1.565-1.027,2.341L238.949,839.512c-15.9,39.359,1.947,75.791,24.117,96.875,22,20.928,59.08,36.8,97.137,18.6L533.527,872.11a71.669,71.669,0,0,1,61.828,129.318L422.032,1084.3A222.608,222.608,0,0,1,325.73,1106.21Z" transform="translate(-89.63 -69.123)" fill="none" stroke="#fff" stroke-width="0.5"/>
    </g>
    <g id="Group_8164" data-name="Group 8164" transform="translate(434.637)">
      <path id="Path_2094" data-name="Path 2094" d="M658.33,1147.282c-63.405,0-125.066-26.482-170.636-74.657L145.621,711.07a71.67,71.67,0,1,1,104.125-98.511L591.819,974.113c21.919,23.162,52.487,33.8,81.728,28.454,14.716-2.7,41.4-11.945,54.649-43.648L996.089,329.687c16.437-39.311-1.53-76.186-23.878-97.46-22-20.916-59.069-36.8-97.139-18.6L701.75,296.5a71.669,71.669,0,1,1-61.829-129.318L813.233,84.311C898.712,43.446,999.875,60.731,1071,128.364c71.551,68.051,93.984,168.951,57.157,257.047L860.261,1014.644c-28.13,67.3-88.358,115.664-160.936,128.924A227.963,227.963,0,0,1,658.33,1147.282Z" transform="translate(-126.016 -62.422)" fill="none" stroke="#fff" stroke-width="0.5"/>
    </g>
  </g>
</svg>
