<svg xmlns="http://www.w3.org/2000/svg" width="876.01" height="503.158" viewBox="0 0 876.01 503.158">
  <g id="Group_9172" data-name="Group 9172" transform="translate(-123.599 -428.242)">
    <path id="Subtraction_6" data-name="Subtraction 6" d="M580.493,492.277h0L466.12,438.237a64.167,64.167,0,0,1-36.269-48.526,63.271,63.271,0,0,1,5.661-37.139,64.276,64.276,0,0,1,24.435-26.926,65.525,65.525,0,0,1,62.254-3.321l58.293,27.544V492.277ZM65,101.964h0A65.181,65.181,0,0,1,20.329,84.391,63.709,63.709,0,0,1,12.378,0H190.62L112.231,81.875A64.81,64.81,0,0,1,90.29,96.926,65.639,65.639,0,0,1,77.86,100.7,66.277,66.277,0,0,1,65,101.964Z" transform="translate(419.116 428.242)" fill="#0c0820"/>
    <g id="Group_8164" data-name="Group 8164" transform="translate(123.599 428.243)">
      <path id="Subtraction_4" data-name="Subtraction 4" d="M342.41,503.157a202.293,202.293,0,0,1-36.509-3.33,194.557,194.557,0,0,1-46.139-14.584,192.068,192.068,0,0,1-97.184-100.956L0,0H138.74L280.189,334.345c11.79,28.392,35.554,36.7,48.67,39.118a74.022,74.022,0,0,0,13.372,1.218,76.1,76.1,0,0,0,16.17-1.753,79.889,79.889,0,0,0,15.609-5.149,84.415,84.415,0,0,0,14.572-8.377,89.234,89.234,0,0,0,13.06-11.439L706.279,23.936a64.354,64.354,0,0,1,10.16-8.771,63.782,63.782,0,0,1,94.668,27.1,64.464,64.464,0,0,1-12.1,69.954L494.372,436.247a218.04,218.04,0,0,1-32.925,28.67,211.368,211.368,0,0,1-37.1,20.976,206.462,206.462,0,0,1-40.078,12.881A202.913,202.913,0,0,1,342.41,503.157Z" transform="translate(0)" fill="#0c0820"/>
    </g>
  </g>
</svg>
